<svg width="15" height="15" viewBox="0 0 15 15" fill="none" xmlns="http://www.w3.org/2000/svg">
<path d="M14.5017 1.94039C14.5951 2.03412 14.6476 2.16106 14.6476 2.29339C14.6476 2.42573 14.5951 2.55267 14.5017 2.64639L13.4587 3.69039L11.4587 1.69039L12.5017 0.646393C12.5955 0.552658 12.7226 0.5 12.8552 0.5C12.9878 0.5 13.115 0.552658 13.2087 0.646393L14.5017 1.93939V1.94039ZM12.7517 4.39639L10.7517 2.39639L3.93872 9.21039C3.88368 9.26542 3.84225 9.33253 3.81772 9.40639L3.01272 11.8204C2.99812 11.8644 2.99604 11.9116 3.00673 11.9567C3.01741 12.0018 3.04044 12.0431 3.07322 12.0759C3.10601 12.1087 3.14727 12.1317 3.19239 12.1424C3.23751 12.1531 3.28471 12.151 3.32872 12.1364L5.74272 11.3314C5.81648 11.3072 5.88359 11.2661 5.93872 11.2114L12.7517 4.39639Z" fill="#9E0072"/>
<path fill-rule="evenodd" clip-rule="evenodd" d="M0 13.5C0 13.8978 0.158035 14.2794 0.43934 14.5607C0.720644 14.842 1.10218 15 1.5 15H12.5C12.8978 15 13.2794 14.842 13.5607 14.5607C13.842 14.2794 14 13.8978 14 13.5V7.5C14 7.36739 13.9473 7.24021 13.8536 7.14645C13.7598 7.05268 13.6326 7 13.5 7C13.3674 7 13.2402 7.05268 13.1464 7.14645C13.0527 7.24021 13 7.36739 13 7.5V13.5C13 13.6326 12.9473 13.7598 12.8536 13.8536C12.7598 13.9473 12.6326 14 12.5 14H1.5C1.36739 14 1.24021 13.9473 1.14645 13.8536C1.05268 13.7598 1 13.6326 1 13.5V2.5C1 2.36739 1.05268 2.24021 1.14645 2.14645C1.24021 2.05268 1.36739 2 1.5 2H8C8.13261 2 8.25979 1.94732 8.35355 1.85355C8.44732 1.75979 8.5 1.63261 8.5 1.5C8.5 1.36739 8.44732 1.24021 8.35355 1.14645C8.25979 1.05268 8.13261 1 8 1H1.5C1.10218 1 0.720644 1.15804 0.43934 1.43934C0.158035 1.72064 0 2.10218 0 2.5V13.5Z" fill="#1C006B"/>
</svg>
